<svg xmlns="http://www.w3.org/2000/svg" xmlns:xlink="http://www.w3.org/1999/xlink" width="560" height="560" viewBox="0 0 560 560"><defs><radialGradient id="a" cx="0.5" cy="0" r="0.858" gradientUnits="objectBoundingBox"><stop offset="0" stop-color="#d9f3f2"/><stop offset="0.532" stop-color="#fff"/><stop offset="1" stop-color="#fff"/></radialGradient><linearGradient id="b" x1="0.5" x2="0.5" y2="1" gradientUnits="objectBoundingBox"><stop offset="0" stop-color="#36c1ba"/><stop offset="0.632" stop-color="#28a9bf"/><stop offset="1" stop-color="#1a90c4"/></linearGradient><linearGradient id="e" x1="0.186" y1="0.337" x2="0.622" y2="0.803" xlink:href="#b"/><linearGradient id="f" x1="0.107" y1="0.097" xlink:href="#b"/><linearGradient id="g" x1="1" y1="0.5" x2="0" y2="0.5" gradientUnits="objectBoundingBox"><stop offset="0" stop-color="#36c1ba"/><stop offset="0.516" stop-color="#7ed4cf"/><stop offset="1" stop-color="#36c1ba"/></linearGradient><filter id="h" x="227.134" y="207.141" width="27.042" height="27.042" filterUnits="userSpaceOnUse"><feOffset dy="1" input="SourceAlpha"/><feGaussianBlur stdDeviation="0.5" result="i"/><feFlood flood-color="#3e66b6"/><feComposite operator="in" in2="i"/><feComposite in="SourceGraphic"/></filter><linearGradient id="j" x1="0.041" y1="0.155" x2="0.776" y2="0.702" xlink:href="#b"/><linearGradient id="l" x1="0.756" x2="0.283" xlink:href="#g"/><filter id="m" x="325.087" y="102.219" width="33.265" height="33.365" filterUnits="userSpaceOnUse"><feOffset dx="0.6" dy="-0.7" input="SourceAlpha"/><feGaussianBlur result="n"/><feFlood flood-color="#28a9bf"/><feComposite operator="in" in2="n"/><feComposite in="SourceGraphic"/></filter><filter id="o" x="321.088" y="80.747" width="58.677" height="58.777" filterUnits="userSpaceOnUse"><feOffset dx="0.6" dy="-0.7" input="SourceAlpha"/><feGaussianBlur result="p"/><feFlood flood-color="#28a9bf"/><feComposite operator="in" in2="p"/><feComposite in="SourceGraphic"/></filter><filter id="q" x="316.368" y="59.47" width="84.518" height="84.618" filterUnits="userSpaceOnUse"><feOffset dx="0.6" dy="-0.7" input="SourceAlpha"/><feGaussianBlur result="r"/><feFlood flood-color="#28a9bf"/><feComposite operator="in" in2="r"/><feComposite in="SourceGraphic"/></filter></defs><g transform="translate(-97 -444)"><ellipse class="a" style="fill:url(#a);"  cx="280" cy="186" rx="280" ry="186" transform="translate(97 632)"/><text class="b" style="fill:#36c1ba;font-size:151px;font-family:SegoeUI, Segoe UI;opacity:0.03;"  transform="translate(335 849)"><tspan x="0" y="0">8</tspan></text><g transform="translate(204 658)"><path class="c" style="fill:url(#b);"  d="M0,0H6A0,0,0,0,1,6,0V31.875A1.875,1.875,0,0,1,4.125,33.75H1.875A1.875,1.875,0,0,1,0,31.875V0A0,0,0,0,1,0,0Z" transform="translate(12 16.875)"/><path class="d" style="fill:#28a9bf;"  d="M0,0,14,35.625,0,45Z" transform="translate(12)"/><path class="e" style="fill:#36c1ba;"  d="M6,0-6,39.375,6,45Z" transform="translate(6)"/></g><g transform="translate(236 620)"><path class="c" style="fill:url(#b);"  d="M0,0H4.615a0,0,0,0,1,0,0V24.519a1.442,1.442,0,0,1-1.442,1.442H1.442A1.442,1.442,0,0,1,0,24.519V0A0,0,0,0,1,0,0Z" transform="translate(9.231 12.981)"/><path class="d" style="fill:#28a9bf;"  d="M0,0,10.769,27.4,0,34.615Z" transform="translate(9.231)"/><path class="e" style="fill:#36c1ba;"  d="M4.615,0-4.615,30.288l9.231,4.327Z" transform="translate(4.615)"/></g><g transform="translate(534 638)"><path class="c" style="fill:url(#b);"  d="M0,0H4.615a0,0,0,0,1,0,0V24.519a1.442,1.442,0,0,1-1.442,1.442H1.442A1.442,1.442,0,0,1,0,24.519V0A0,0,0,0,1,0,0Z" transform="translate(9.231 12.981)"/><path class="d" style="fill:#28a9bf;"  d="M0,0,10.769,27.4,0,34.615Z" transform="translate(9.231)"/><path class="e" style="fill:#36c1ba;"  d="M4.615,0-4.615,30.288l9.231,4.327Z" transform="translate(4.615)"/></g><rect class="f" style="fill:none;"  width="560" height="560" transform="translate(97 444)"/><g transform="translate(406.739 478.612) rotate(45)"><path class="g" style="fill:url(#e);"  d="M39.711,54.606,68.228,0,0,18.6Z" transform="translate(82 175.7)"/><path class="h" style="fill:url(#f);"  d="M0,0,3.309,37.569,39.711,36Z" transform="translate(82 194.303)"/><circle class="d" style="fill:#28a9bf;"  cx="9" cy="9" r="9" transform="translate(73 181.7)"/><g class="p" style="filter:url(#h);"  transform="matrix(0.71, -0.71, 0.71, 0.71, -243.49, 194.54)"><path class="i" style="fill:url(#g);"  d="M0,0H12a0,0,0,0,1,0,0V19a3,3,0,0,1-3,3H3a3,3,0,0,1-3-3V0A0,0,0,0,1,0,0Z" transform="translate(244.19 207.64) rotate(45)"/></g><path class="j" style="fill:url(#j);"  d="M81.976,80A82,82,0,0,1,0,0H163.952A82,82,0,0,1,81.976,80Z" transform="translate(0.024 94.702)"/><ellipse class="k" style="fill:#d9f3f2;"  cx="82" cy="21" rx="82" ry="21" transform="translate(0 72.7)"/><ellipse class="c" style="fill:url(#b);"  cx="78" cy="17" rx="78" ry="17" transform="translate(4 76.7)"/><path class="l" style="fill:url(#l);"  d="M9.448,0l8.081,55.886S14.182,56,9.448,56,0,55.886,0,55.886Z" transform="translate(72.552 54.7)"/><circle class="d" style="fill:#28a9bf;"  cx="6" cy="6" r="6" transform="translate(76 48.7)"/><g class="o" style="filter:url(#m);"  transform="matrix(0.71, -0.71, 0.71, 0.71, -243.49, 194.54)"><path class="e" style="fill:#36c1ba;"  d="M17.4,0A26.6,26.6,0,0,1,34.731,6.389l.569.5-3.621,4.006A21.3,21.3,0,0,0,4.05,10.1l-.53.441L0,6.447A26.6,26.6,0,0,1,17.4,0Z" transform="translate(332.79 102.92) rotate(45)"/></g><g class="n" style="filter:url(#o);"  transform="matrix(0.71, -0.71, 0.71, 0.71, -243.49, 194.54)"><path class="e" style="fill:#36c1ba;"  d="M31.765,0A42.591,42.591,0,0,1,63.392,14.011l.555.624-4.068,3.551a37.3,37.3,0,0,0-55.3-1.022l-.561.611L0,14.164A42.591,42.591,0,0,1,31.765,0Z" transform="translate(333.95 81.45) rotate(45)"/></g><g class="m" style="filter:url(#q);"  transform="matrix(0.71, -0.71, 0.71, 0.71, -243.49, 194.54)"><path class="e" style="fill:#36c1ba;"  d="M45.856,0A56.612,56.612,0,0,1,91.364,22.873l.544.743L87.525,26.77a51.309,51.309,0,0,0-82.631-.96l-.529.713L0,23.344A56.616,56.616,0,0,1,45.856,0Z" transform="translate(335.3 60.17) rotate(45)"/></g></g></g></svg>