<svg xmlns="http://www.w3.org/2000/svg" xmlns:xlink="http://www.w3.org/1999/xlink" width="560" height="560" viewBox="0 0 560 560"><defs><radialGradient id="a" cx="0.5" cy="0" r="0.858" gradientUnits="objectBoundingBox"><stop offset="0" stop-color="#d9f3f2"/><stop offset="0.532" stop-color="#fff"/><stop offset="1" stop-color="#fff"/></radialGradient><linearGradient id="b" x1="0.5" x2="0.5" y2="1" gradientUnits="objectBoundingBox"><stop offset="0" stop-color="#36c1ba"/><stop offset="0.632" stop-color="#28a9bf"/><stop offset="1" stop-color="#1a90c4"/></linearGradient><linearGradient id="e" x1="0.16" y1="0.041" x2="0.367" y2="0.261" gradientUnits="objectBoundingBox"><stop offset="0" stop-color="#36c1ba"/><stop offset="0.632" stop-color="#28a9bf"/><stop offset="1" stop-color="#1a90c4" stop-opacity="0.8"/></linearGradient><linearGradient id="f" x1="0.5" x2="0.5" y2="1" gradientUnits="objectBoundingBox"><stop offset="0" stop-color="#b2e5e3"/><stop offset="1" stop-color="#d9f3f2"/></linearGradient><linearGradient id="g" x1="0.054" y1="0.061" x2="0.927" y2="0.911" xlink:href="#e"/><linearGradient id="i" x1="0" y1="0.5" x2="0.804" y2="0.555" xlink:href="#e"/><linearGradient id="k" x1="0.682" y1="0.748" x2="0.076" y2="0.166" xlink:href="#f"/><linearGradient id="m" x1="0.575" y1="0.848" x2="0.936" y2="0.151" xlink:href="#b"/><linearGradient id="n" x1="0.07" y1="0.915" x2="0.959" y2="0.074" xlink:href="#f"/><linearGradient id="o" x1="1" y1="0.5" x2="0.08" y2="0.389" xlink:href="#e"/><linearGradient id="p" x1="0.849" y1="0.067" x2="0.5" y2="0.615" gradientUnits="objectBoundingBox"><stop offset="0" stop-color="#28a9bf"/><stop offset="1" stop-color="#d9f3f2"/></linearGradient><filter id="q" x="207.842" y="175.552" width="74.658" height="34.984" filterUnits="userSpaceOnUse"><feOffset dy="2" input="SourceAlpha"/><feGaussianBlur stdDeviation="1.5" result="r"/><feFlood flood-color="#1a90c4"/><feComposite operator="in" in2="r"/><feComposite in="SourceGraphic"/></filter><filter id="s" x="207.842" y="196.341" width="45.737" height="27.575" filterUnits="userSpaceOnUse"><feOffset dy="2" input="SourceAlpha"/><feGaussianBlur stdDeviation="1.5" result="t"/><feFlood flood-color="#1a90c4"/><feComposite operator="in" in2="t"/><feComposite in="SourceGraphic"/></filter><filter id="u" x="207.842" y="218.979" width="39.618" height="27.293" filterUnits="userSpaceOnUse"><feOffset dy="2" input="SourceAlpha"/><feGaussianBlur stdDeviation="1.5" result="v"/><feFlood flood-color="#1a90c4"/><feComposite operator="in" in2="v"/><feComposite in="SourceGraphic"/></filter><linearGradient id="w" x1="1" y1="0.5" x2="0" y2="0.612" xlink:href="#b"/><linearGradient id="y" x1="0.899" y1="0.103" xlink:href="#f"/></defs><g transform="translate(-97 -444)"><ellipse class="a" style="fill:url(#a);"  cx="280" cy="186" rx="280" ry="186" transform="translate(97 632)"/><text class="b" style="fill:#36c1ba;font-size:151px;font-family:SegoeUI, Segoe UI;opacity:0.03;"  transform="translate(335 849)"><tspan x="0" y="0">8</tspan></text><g transform="translate(204 658)"><path class="c" style="fill:url(#b);"  d="M0,0H6A0,0,0,0,1,6,0V31.875A1.875,1.875,0,0,1,4.125,33.75H1.875A1.875,1.875,0,0,1,0,31.875V0A0,0,0,0,1,0,0Z" transform="translate(12 16.875)"/><path class="d" style="fill:#28a9bf;"  d="M0,0,14,35.625,0,45Z" transform="translate(12)"/><path class="e" style="fill:#36c1ba;"  d="M6,0-6,39.375,6,45Z" transform="translate(6)"/></g><g transform="translate(236 620)"><path class="c" style="fill:url(#b);"  d="M0,0H4.615a0,0,0,0,1,0,0V24.519a1.442,1.442,0,0,1-1.442,1.442H1.442A1.442,1.442,0,0,1,0,24.519V0A0,0,0,0,1,0,0Z" transform="translate(9.231 12.981)"/><path class="d" style="fill:#28a9bf;"  d="M0,0,10.769,27.4,0,34.615Z" transform="translate(9.231)"/><path class="e" style="fill:#36c1ba;"  d="M4.615,0-4.615,30.288l9.231,4.327Z" transform="translate(4.615)"/></g><g transform="translate(534 638)"><path class="c" style="fill:url(#b);"  d="M0,0H4.615a0,0,0,0,1,0,0V24.519a1.442,1.442,0,0,1-1.442,1.442H1.442A1.442,1.442,0,0,1,0,24.519V0A0,0,0,0,1,0,0Z" transform="translate(9.231 12.981)"/><path class="d" style="fill:#28a9bf;"  d="M0,0,10.769,27.4,0,34.615Z" transform="translate(9.231)"/><path class="e" style="fill:#36c1ba;"  d="M4.615,0-4.615,30.288l9.231,4.327Z" transform="translate(4.615)"/></g><rect class="f" style="fill:none;"  width="560" height="560" transform="translate(97 444)"/><g transform="translate(270.57 554.457)"><path class="g" style="fill:url(#e);"  d="M0,0,87.559,20.458v98.206L16.713,155.408,0,148.28Z" transform="translate(105.43 21.056)"/><path class="e" style="fill:#36c1ba;"  d="M0,17.9,69.2,0V148.28L0,116.237Z" transform="translate(36.228 21.056)"/><path class="h" style="fill:url(#f);"  d="M0,0V96.712l95.416,40.8V25.237L9.5,0Z" transform="translate(26.727 38.956)"/><path class="i" style="fill:url(#g);"  d="M0,0V96.712l95.416,40.8V27.767Z" transform="translate(26.727 38.956)"/><path class="h" style="fill:url(#f);"  d="M0,26.368V136.109L81.379,93.948V0L70.846,1.159,0,23.838Z" transform="translate(122.142 40.355)"/><path class="j" style="fill:url(#i);"  d="M0,26.368V136.109L81.379,93.948V0Z" transform="translate(122.142 40.355)"/><path class="h" style="fill:url(#f);"  d="M9.5,21.919l69.2-17.9V0L0,21.919Z" transform="translate(26.727 17.037)"/><path class="k" style="fill:url(#k);"  d="M0,0,98.091,23.317,87.559,24.477,0,4.018Z" transform="translate(105.43 17.037)"/><path class="h" style="fill:url(#f);"  d="M26.726,0V52.548L0,37Z" transform="translate(0.001 38.956)"/><path class="l" style="fill:url(#m);"  d="M23.159,0V45.228L0,31.771Z" transform="translate(3.568 46.277)"/><path class="m" style="fill:#d8d8d8;"  d="M0,0V54.627L25.28,39.934Z" transform="translate(203.521 40.355)"/><path class="n" style="fill:#b2e5e3;"  d="M0,0V7.733L24.612,55h2.455V51.435Z" transform="translate(122.142 66.723)"/><path class="o" style="fill:url(#n);"  d="M0,37.87v3.566L79.592,2.08V0Z" transform="translate(149.209 80.289)"/><path class="p" style="fill:url(#o);"  d="M0,26.368,27.067,79.179l79.592-39.245L81.379,0Z" transform="translate(122.142 40.355)"/><path class="q" style="fill:url(#p);"  d="M0,58.765Q1.042,55.787,2.1,53.1l1.861.733q-1.042,2.649-2.072,5.591ZM4.455,47.525q1.342-2.948,2.709-5.44l1.753.963q-1.328,2.422-2.641,5.3Zm8.091-10.192q-.26.346-.52.71L10.4,36.882a29.25,29.25,0,0,1,4.079-4.689l1.343,1.481a24.458,24.458,0,0,0-2.62,2.818l1.063-.323a4.52,4.52,0,0,0,3.611,3.416l-.389,1.962A6.429,6.429,0,0,1,12.546,37.333Zm10.68,1.434a7.891,7.891,0,0,0,4.027-3.4l1.841.781A9.7,9.7,0,0,1,24.039,40.6Zm-2.671-7.952L20,28.894a8.656,8.656,0,0,1,6.757.7l-1.021,1.721A6.667,6.667,0,0,0,20.554,30.814Zm-8.505-.274.07-.511a13.665,13.665,0,0,1,2.461-5.438l1.652,1.125A11.931,11.931,0,0,0,14.1,30.325l-.065.47ZM18.432,19.82q1.855-2.033,4.255-4.327l1.382,1.445q-2.354,2.249-4.16,4.23ZM27.2,11.372q2.138-1.882,4.586-3.911L33.061,9l-1.892,1.586-1.793,1.539-.86.751ZM36.414,3.7q1.131-.9,2.317-1.827L41.155,0l1.219,1.586q-.616.472-1.219.94L38.8,4.369l-1.139.9Z" transform="translate(100.396 0)"/><g class="w" style="filter:url(#q);"  transform="matrix(1, 0, 0, 1, -173.57, -110.46)"><path class="r" style="fill:#d9f3f2;"  d="M0,0V5.594l65.658,20.39V18.851Z" transform="translate(212.34 178.05)"/></g><g class="v" style="filter:url(#s);"  transform="matrix(1, 0, 0, 1, -173.57, -110.46)"><path class="r" style="fill:#d9f3f2;"  d="M0,0V6.3L36.737,18.575v-6.35Z" transform="translate(212.34 198.84)"/></g><g class="u" style="filter:url(#u);"  transform="matrix(1, 0, 0, 1, -173.57, -110.46)"><path class="r" style="fill:#d9f3f2;"  d="M0,0V6.221L30.618,18.293V11.47Z" transform="translate(212.34 221.48)"/></g></g><g transform="translate(403.131 506.691)"><path class="d" style="fill:#28a9bf;"  d="M0,0V23.125l14.069-14.7Z" transform="translate(19.978 23.72)"/><path class="s" style="fill:url(#w);"  d="M47.106,0,0,23.721v3.173l9.843,9.619Z" transform="translate(19.978 -0.001)"/><path class="n" style="fill:#b2e5e3;"  d="M21.155,10.072l-1.59,3.111L0,3.448.084,0Z" transform="translate(27.013 28.6)"/><path class="h" style="fill:url(#f);"  d="M62.63,0,0,11.576,15.524,23.721Z" transform="translate(4.454 -0.001)"/><path class="t" style="fill:url(#y);"  d="M39.987,0,21.072,38.673,0,28.767Z" transform="translate(27.097 -0.001)"/><path class="n" style="fill:#b2e5e3;"  d="M4.454,0,0,1.151,19.978,17.025v-4.88Z" transform="translate(0 11.575)"/></g></g></svg>