<svg xmlns="http://www.w3.org/2000/svg" xmlns:xlink="http://www.w3.org/1999/xlink" width="560" height="560" viewBox="0 0 560 560"><defs><linearGradient id="a" x1="0.5" y1="0.337" x2="0.536" y2="0.698" gradientUnits="objectBoundingBox"><stop offset="0" stop-color="#d9f3f2"/><stop offset="1" stop-color="#eaf0fc" stop-opacity="0"/></linearGradient><linearGradient id="b" y1="0.365" x2="0.536" y2="0.665" xlink:href="#a"/><radialGradient id="c" cx="0.5" cy="0" r="0.858" gradientUnits="objectBoundingBox"><stop offset="0" stop-color="#d9f3f2"/><stop offset="0.532" stop-color="#fff"/><stop offset="1" stop-color="#fff"/></radialGradient><linearGradient id="d" x1="0.5" x2="0.5" y2="1" gradientUnits="objectBoundingBox"><stop offset="0" stop-color="#36c1ba"/><stop offset="0.632" stop-color="#28a9bf"/><stop offset="1" stop-color="#1a90c4"/></linearGradient><linearGradient id="g" x1="0.115" y1="0.208" x2="0.806" y2="0.659" gradientUnits="objectBoundingBox"><stop offset="0" stop-color="#d9f3f2"/><stop offset="1" stop-color="#fff" stop-opacity="0"/></linearGradient><linearGradient id="h" x1="-0.007" y1="-0.124" x2="1.006" y2="0.358" gradientUnits="objectBoundingBox"><stop offset="0" stop-color="#e1fffd"/><stop offset="0.632" stop-color="#28a9bf"/><stop offset="1" stop-color="#1a90c4"/></linearGradient><linearGradient id="i" x1="0.5" x2="0.5" y2="1" gradientUnits="objectBoundingBox"><stop offset="0" stop-color="#3adbd3"/><stop offset="1" stop-color="#28a9bf"/></linearGradient><linearGradient id="j" x1="0.353" y1="-0.08" x2="0.834" y2="0.471" xlink:href="#h"/><linearGradient id="k" x1="0.5" x2="0.5" y2="1" gradientUnits="objectBoundingBox"><stop offset="0" stop-color="#36c1ba"/><stop offset="1" stop-color="#28a9bf"/></linearGradient><linearGradient id="l" x1="0.465" y1="-0.08" x2="0.633" y2="1.438" xlink:href="#d"/><linearGradient id="m" x1="0.447" y1="-0.08" x2="0.701" y2="1.438" xlink:href="#d"/></defs><g transform="translate(-97 -444)"><rect class="a" style="fill:none;"  width="560" height="560" transform="translate(97 444)"/><path class="b" style="fill-rule:evenodd;fill:url(#a);"  d="M754.331,227.276l-.124,1.525-.346,1.431-.568,1.367-.764,1.273-.944,1.17-1.136,1.072-1.264.927-1.409.786-1.567.653-1.631.465-1.742.29-1.858.107h-41.31l-1.858-.214-1.76-.372-1.661-.53-1.6-.692-1.443-.816-1.307-.944-1.174-1.089-.978-1.183-.794-1.285-.594-1.384-.363-1.469-.132-1.58.1-1.384.295-1.315.478-1.273.641-1.2.8-1.123.952-1.051,1.068-.935,1.187-.833,1.311-.726-.427-1.106-.141-.555-.051-.551.149-1.375.41-1.294.679-1.23.9-1.093,1.1-.952,1.32-.811,1.435-.6,1.576-.372,1.751-.145,1.593.137,1.435.359,1.349.547,1.213.679,1.354-1.811,1.559-1.666,1.781-1.52,1.943-1.32,2.11-1.123,2.3-.918,1.777-.525,1.853-.38,1.935-.239,2.029-.085,2.11.094,2.007.26,1.917.414,1.836.568,1.8.735,1.661.85,1.537.969,1.422,1.089,1.32,1.226,1.153,1.3,1,1.388.846,1.478.679,1.559.491,1.61.3,1.674.111,1.751v.982l1.623.666,1.456.8,1.307.935,1.174,1.089.969,1.179.786,1.285.589,1.379.354,1.448Z" transform="translate(-245.102 266.502)"/><path class="c" style="fill-rule:evenodd;fill:url(#b);"  d="M133.925,149l2.626.141,2.511.4,2.409.658,2.327.9,2.187,1.11,2.058,1.332,1.913,1.525,1.738,1.7,1.567,1.879,1.375,2.024,1.157,2.157.952,2.306h15.733l1.362.128,1.251.337,1.157.555,1.051.743.888.888.743,1.051.551,1.157.342,1.247.128,1.367v18.27l-.128,1.362-.342,1.251-.551,1.157-.743,1.046-.888.893-1.051.743-1.157.551-1.251.342-1.362.128H96.322l-1.367-.128-1.247-.342-1.162-.551-1.046-.743-.888-.893-.743-1.046-.555-1.157-.342-1.251-.124-1.362v-5.3l-.837-1.495-.7-1.567-.564-1.653-.41-1.7-.248-1.76L86,175.572l.107-1.969.286-1.883.461-1.8.636-1.734.811-1.67.944-1.559L90.33,163.5l1.23-1.35,1.35-1.23,1.452-1.085,1.559-.948,1.67-.807,1.734-.636,1.8-.465,1.883-.286,1.969-.1,1.691.073,1.631.214,1.58.35,1.542.483,1.473.6,1.405.722,1.572-1.952,1.742-1.764,1.935-1.589,2.084-1.384,2.221-1.157,2.37-.94,1.832-.538,1.892-.389,1.952-.239Z" transform="translate(113.021 314.148)"/><ellipse class="d" style="fill:url(#c);"  cx="280" cy="186" rx="280" ry="186" transform="translate(97 632)"/><text class="e" style="fill:#36c1ba;font-size:151px;font-family:SegoeUI, Segoe UI;opacity:0.03;"  transform="translate(335 849)"><tspan x="0" y="0">8</tspan></text><g transform="translate(204 658)"><path class="f" style="fill:url(#d);"  d="M0,0H6A0,0,0,0,1,6,0V31.875A1.875,1.875,0,0,1,4.125,33.75H1.875A1.875,1.875,0,0,1,0,31.875V0A0,0,0,0,1,0,0Z" transform="translate(12 16.875)"/><path class="g" style="fill:#28a9bf;"  d="M0,0,14,35.625,0,45Z" transform="translate(12)"/><path class="h" style="fill:#36c1ba;"  d="M6,0-6,39.375,6,45Z" transform="translate(6)"/></g><g transform="translate(236 620)"><path class="f" style="fill:url(#d);"  d="M0,0H4.615a0,0,0,0,1,0,0V24.519a1.442,1.442,0,0,1-1.442,1.442H1.442A1.442,1.442,0,0,1,0,24.519V0A0,0,0,0,1,0,0Z" transform="translate(9.231 12.981)"/><path class="g" style="fill:#28a9bf;"  d="M0,0,10.769,27.4,0,34.615Z" transform="translate(9.231)"/><path class="h" style="fill:#36c1ba;"  d="M4.615,0-4.615,30.288l9.231,4.327Z" transform="translate(4.615)"/></g><g transform="translate(534 638)"><path class="f" style="fill:url(#d);"  d="M0,0H4.615a0,0,0,0,1,0,0V24.519a1.442,1.442,0,0,1-1.442,1.442H1.442A1.442,1.442,0,0,1,0,24.519V0A0,0,0,0,1,0,0Z" transform="translate(9.231 12.981)"/><path class="g" style="fill:#28a9bf;"  d="M0,0,10.769,27.4,0,34.615Z" transform="translate(9.231)"/><path class="h" style="fill:#36c1ba;"  d="M4.615,0-4.615,30.288l9.231,4.327Z" transform="translate(4.615)"/></g><path class="i" style="fill:url(#g);"  d="M331.55,678.195l142.422,75.322,102.052-61.224L438.163,649.5Z" transform="translate(-42.023 8.395)"/><path class="j" style="fill:url(#h);"  d="M324,450.022V550.809l.12,1.29.32,1.179.525,1.093.7.991.841.841.991.7,1.093.525,1.183.32,1.285.12,70.47,3.459,5.59-3.459,12.774-51.1L402.183,468.1l25.381-25.744-96.555.6-1.281.132-1.17.329-1.089.525-.982.7-.833.837-.7.991-.517,1.089-.32,1.174Z" transform="translate(-37.699 127.072)"/><path class="k" style="fill:url(#i);"  d="M324,460.753v99.634l.12,1.29.32,1.183.521,1.1.7,1,.837.841.982.7,1.093.525,1.174.325,1.285.12h70.15L414.6,513.449,395.572,473.3,414.6,453.07l-83.615.6-1.277.132-1.17.329-1.081.525-.978.7-.833.841-.692,1-.517,1.089-.316,1.179Z" transform="translate(-37.699 120.937)"/><path class="l" style="fill:url(#j);"  d="M590.4,467.36l41.037,10.531,1.183.419,1.042.577.914.739.781.884.611.978.448,1.085.265,1.14.06,1.183-.149,1.238L609.027,588.391l-.444,1.371-.658,1.179-.867,1.012-1.046.837-1.157.611-1.281.4-1.333.154-1.349-.115-1.4-.393-59.46-16.173,29.852-55.4-7.777-38.82Z" transform="translate(-161.469 112.749)"/><path class="m" style="fill:url(#k);"  d="M578.292,473.85l41.037,10.531,1.187.419,1.038.577.914.739.782.884.611.978.448,1.085.265,1.14.06,1.183-.149,1.239L598,590.849l-.448,1.371L596.9,593.4l-.871,1.012-1.046.837-1.153.611-1.285.4-1.328.154-1.354-.115-1.4-.393L529,579.732l28.776-51.367-7.781-38.82Z" transform="translate(-155.152 109.031)"/><path class="n" style="fill:url(#l);"  d="M379.36,299.24l6.649,23.612,9.447-4.608L404,335.767l-5.684-24.889-9.6,4.685Z" transform="translate(-69.418 209.071)"/><path class="o" style="fill:url(#m);"  d="M709.334,329.23l-30.125,19.244,13.64,13.107-23.6,18.163,17.535-8.285,10.177-5,5.232-2.75,2.208-1.328.645-.534.047-.179-.828-.88-3.626-3.387-9.707-8.7Z" transform="translate(-235.504 191.889)"/></g></svg>