<svg xmlns="http://www.w3.org/2000/svg" xmlns:xlink="http://www.w3.org/1999/xlink" width="560" height="560" viewBox="0 0 560 560"><defs><radialGradient id="a" cx="0.5" cy="0" r="0.858" gradientUnits="objectBoundingBox"><stop offset="0" stop-color="#d9f3f2"/><stop offset="0.532" stop-color="#fff"/><stop offset="1" stop-color="#fff"/></radialGradient><linearGradient id="b" x1="0.5" x2="0.5" y2="1" gradientUnits="objectBoundingBox"><stop offset="0" stop-color="#36c1ba"/><stop offset="0.632" stop-color="#28a9bf"/><stop offset="1" stop-color="#1a90c4"/></linearGradient><linearGradient id="e" x1="-0.066" y1="0.358" x2="0.883" y2="0.753" gradientUnits="objectBoundingBox"><stop offset="0" stop-color="#7ed4cf"/><stop offset="1" stop-color="#36c1ba"/></linearGradient><linearGradient id="f" x1="0.302" y1="0.077" x2="0.696" y2="0.922" xlink:href="#e"/><linearGradient id="g" x1="0.7" y1="0.909" x2="0.295" y2="0.094" gradientUnits="objectBoundingBox"><stop offset="0" stop-color="#7ed4cf" stop-opacity="0.812"/><stop offset="1" stop-color="#36c1ba"/></linearGradient><linearGradient id="h" x1="0.534" y1="1" x2="0.5" y2="0.021" gradientUnits="objectBoundingBox"><stop offset="0" stop-color="#92dfdc"/><stop offset="1" stop-color="#92dfdc"/></linearGradient><linearGradient id="i" x1="0.265" y1="0.957" x2="0.464" y2="0.159" xlink:href="#e"/></defs><g transform="translate(-97 -444)"><ellipse class="a" style="fill:url(#a);"  cx="280" cy="186" rx="280" ry="186" transform="translate(97 632)"/><text class="b" style="fill:#36c1ba;font-size:151px;font-family:SegoeUI, Segoe UI;opacity:0.03;"  transform="translate(335 849)"><tspan x="0" y="0">8</tspan></text><g transform="translate(204 658)"><path class="c" style="fill:url(#b);"  d="M0,0H6A0,0,0,0,1,6,0V31.875A1.875,1.875,0,0,1,4.125,33.75H1.875A1.875,1.875,0,0,1,0,31.875V0A0,0,0,0,1,0,0Z" transform="translate(12 16.875)"/><path class="d" style="fill:#28a9bf;"  d="M0,0,14,35.625,0,45Z" transform="translate(12)"/><path class="e" style="fill:#36c1ba;"  d="M6,0-6,39.375,6,45Z" transform="translate(6)"/></g><g transform="translate(236 620)"><path class="c" style="fill:url(#b);"  d="M0,0H4.615a0,0,0,0,1,0,0V24.519a1.442,1.442,0,0,1-1.442,1.442H1.442A1.442,1.442,0,0,1,0,24.519V0A0,0,0,0,1,0,0Z" transform="translate(9.231 12.981)"/><path class="d" style="fill:#28a9bf;"  d="M0,0,10.769,27.4,0,34.615Z" transform="translate(9.231)"/><path class="e" style="fill:#36c1ba;"  d="M4.615,0-4.615,30.288l9.231,4.327Z" transform="translate(4.615)"/></g><g transform="translate(534 638)"><path class="c" style="fill:url(#b);"  d="M0,0H4.615a0,0,0,0,1,0,0V24.519a1.442,1.442,0,0,1-1.442,1.442H1.442A1.442,1.442,0,0,1,0,24.519V0A0,0,0,0,1,0,0Z" transform="translate(9.231 12.981)"/><path class="d" style="fill:#28a9bf;"  d="M0,0,10.769,27.4,0,34.615Z" transform="translate(9.231)"/><path class="e" style="fill:#36c1ba;"  d="M4.615,0-4.615,30.288l9.231,4.327Z" transform="translate(4.615)"/></g><rect class="f" style="fill:none;"  width="560" height="560" transform="translate(97 444)"/><path class="g" style="fill:none;stroke:#28a9bf;stroke-width:2px;stroke-dasharray:2 2;"  d="M522.619,285.14c-9.662-7.147-56.457-19.012-81.729,13.911-31.59,41.154-64.05,82.6-128.39,57.384" transform="translate(-42.5 219.943)"/><path class="h" style="fill:url(#e);"  d="M712.559,301.017l-24.64,5.1a1.018,1.018,0,0,1-.864-.22,1.048,1.048,0,0,1-.3-.417,1.147,1.147,0,0,1-.064-.394l.139-7.234a.907.907,0,0,0-.62-.875l-5.228-1.722a.95.95,0,0,1-.632-.6.832.832,0,0,1-.07-.359,1.026,1.026,0,0,1,.174-.6,1,1,0,0,1,.487-.388l4.654-1.8a1.777,1.777,0,0,1,1.211-.029l20.392,6.643-19.934-10.584a.445.445,0,0,1-.238-.406l.128-6.62a.943.943,0,0,1,.6-.922.956.956,0,0,1,1.078.133L713,299.2a1.03,1.03,0,0,1-.441,1.82Z" transform="translate(-200.16 215.088)"/><g transform="translate(-125 264.58)"><path class="i" style="fill:#7a94f2;fill-rule:evenodd;"  d="M424.769,277.889l10.61-5.1L445.889,268l21.325-9.543,10.828-5.05,11.339-5.633,2.836-1.259,2.763-.868,2.71-.5,2.684-.152,2.684.186,2.644.524,2.611.855,2.6,1.213,8.237,4.288,8.39,4.129L536,260.169l8.357,3.8,16.236,7.21,14.937,6.706,2.578,1.279,2.081,1.279,1.65,1.272,1.425,1.5,1.14,1.73.862,2,.55,2.127.358,2.684.126,3.333v75.275l-.192,4.009-.53,4-.875,4.009-1.219,4.023-1.5,3.917-1.763,3.89-2.034,3.877-2.319,3.864-3.373,4.95-3.711,4.844-4.062,4.738-4.294,4.539-4.473,4.341-4.652,4.142-4.818,3.956-4.811,3.671-4.8,3.38-4.937,3.207-4.725,2.816L522.695,449l-4.639,2.273-4.208,1.8-3.81,1.385-3.923,1.127-3.26.616-2.7.192-2.7-.192-3.26-.616-3.923-1.127-3.81-1.385-4.208-1.8L477.605,449l-4.52-2.459-4.725-2.816-4.937-3.207-4.8-3.38-4.811-3.671L449,429.513l-4.652-4.142-4.473-4.341-4.294-4.539-4.062-4.738-3.711-4.844-3.373-4.95-2.319-3.864-2.034-3.877-1.763-3.89-1.5-3.917-1.219-4.023-.875-4.009-.53-4L414,370.368V295.093l.159-3.83.431-2.85.5-1.756.636-1.491.755-1.266.928-1.146,1.107-1.067,1.305-1,2.18-1.345Z"/><path class="j" style="fill-rule:evenodd;fill:url(#f);"  d="M424.769,277.889l10.61-5.1L445.889,268l21.325-9.543,10.828-5.05,11.339-5.633,2.836-1.259,2.763-.868,2.71-.5,2.684-.152,2.684.186,2.644.524,2.611.855,2.6,1.213,8.237,4.288,8.39,4.129L536,260.169l8.357,3.8,16.236,7.21,14.937,6.706,2.578,1.279,2.081,1.279,1.65,1.272,1.425,1.5,1.14,1.73.862,2,.55,2.127.358,2.684.126,3.333v75.275l-.192,4.009-.53,4-.875,4.009-1.219,4.023-1.5,3.917-1.763,3.89-2.034,3.877-2.319,3.864-3.373,4.95-3.711,4.844-4.062,4.738-4.294,4.539-4.473,4.341-4.652,4.142-4.818,3.956-4.811,3.671-4.8,3.38-4.937,3.207-4.725,2.816L522.695,449l-4.639,2.273-4.208,1.8-3.81,1.385-3.923,1.127-3.26.616-2.7.192-2.7-.192-3.26-.616-3.923-1.127-3.81-1.385-4.208-1.8L477.605,449l-4.52-2.459-4.725-2.816-4.937-3.207-4.8-3.38-4.811-3.671L449,429.513l-4.652-4.142-4.473-4.341-4.294-4.539-4.062-4.738-3.711-4.844-3.373-4.95-2.319-3.864-2.034-3.877-1.763-3.89-1.5-3.917-1.219-4.023-.875-4.009-.53-4L414,370.368V295.093l.159-3.83.431-2.85.5-1.756.636-1.491.755-1.266.928-1.146,1.107-1.067,1.305-1,2.18-1.345Z"/><path class="i" style="fill:#7a94f2;fill-rule:evenodd;"  d="M448.615,304.289l8.489-4.069,8.41-3.83,17.058-7.628,8.661-4.042,9.072-4.5,2.273-1.007,2.207-.7,2.174-.4L509.1,278l2.147.152,2.114.411,2.094.689,2.081.968,8.82,4.539,8.979,4.314,9.013,4.122,8.688,3.863,16.19,7.23,2.061,1.021,1.663,1.027,1.319,1.021,1.146,1.193.908,1.385.689,1.6.444,1.7.285,2.14.1,2.671v60.172l-.205,3.658-.543,3.651-.9,3.651-1.266,3.671-1.531,3.552-1.789,3.519-2.068,3.492-2.346,3.473-3.38,4.427-3.685,4.274-3.989,4.129-4.188,3.936-4.288,3.671-4.38,3.419-4.533,3.241-4.38,2.863-4.248,2.518-4.38,2.326-3.97,1.856-3.6,1.431-3.724,1.173-3.048.636-2.472.2-2.472-.2-3.048-.636-3.724-1.173-3.605-1.431-3.97-1.856-4.38-2.326-4.248-2.518-4.38-2.863-4.533-3.241-4.38-3.419-4.288-3.671-4.188-3.936-3.989-4.129-3.685-4.274-3.38-4.427-2.346-3.473-2.068-3.492-1.789-3.519-1.531-3.552-1.266-3.671-.9-3.651-.543-3.651L440,378.219V318.046l.126-3.068.351-2.28.636-2.021.868-1.577,1.166-1.359,1.5-1.213,1.743-1.08Z" transform="translate(-8.77 -11.131)"/><path class="k" style="fill:#92dfdc;"  d="M448.615,304.289l8.489-4.069,8.41-3.83,17.058-7.628,8.661-4.042,9.072-4.5,2.273-1.007,2.207-.7,2.174-.4L509.1,278l2.147.152,2.114.411,2.094.689,2.081.968,8.82,4.539,8.979,4.314,9.013,4.122,8.688,3.863,16.19,7.23,2.061,1.021,1.663,1.027,1.319,1.021,1.146,1.193.908,1.385.689,1.6.444,1.7.285,2.14.1,2.671v60.172l-.205,3.658-.543,3.651-.9,3.651-1.266,3.671-1.531,3.552-1.789,3.519-2.068,3.492-2.346,3.473-3.38,4.427-3.685,4.274-3.989,4.129-4.188,3.936-4.288,3.671-4.38,3.419-4.533,3.241-4.38,2.863-4.248,2.518-4.38,2.326-3.97,1.856-3.6,1.431-3.724,1.173-3.048.636-2.472.2-2.472-.2-3.048-.636-3.724-1.173-3.605-1.431-3.97-1.856-4.38-2.326-4.248-2.518-4.38-2.863-4.533-3.241-4.38-3.419-4.288-3.671-4.188-3.936-3.989-4.129-3.685-4.274-3.38-4.427-2.346-3.473-2.068-3.492-1.789-3.519-1.531-3.552-1.266-3.671-.9-3.651-.543-3.651L440,378.219V318.046l.126-3.068.351-2.28.636-2.021.868-1.577,1.166-1.359,1.5-1.213,1.743-1.08Z" transform="translate(-8.77 -11.131)"/><path class="i" style="fill:#7a94f2;fill-rule:evenodd;"  d="M452.323,306.467l8.2-3.943,8.125-3.711,16.488-7.389,8.37-3.917,8.767-4.354,2.193-.981,2.134-.669,2.1-.384,2.068-.119,2.074.146,2.048.4,2.015.663,2.015.941,8.522,4.394,8.681,4.182,17.1,7.727,15.646,7.011,1.988.987,1.61.994,1.272.987,1.107,1.153.881,1.339.663,1.551.424,1.65.285,2.074.093,2.585v58.284l-.2,3.545-.524,3.539-.875,3.539-1.219,3.559-1.478,3.433L571.17,399.1l-1.995,3.38-2.266,3.366-3.267,4.288-3.559,4.142-3.85,4-4.056,3.8-4.142,3.559-4.235,3.313-4.374,3.134-4.235,2.777-4.109,2.439-4.228,2.253-3.844,1.8-3.479,1.385-3.6,1.133-2.942.616-2.392.192-2.392-.192-2.942-.616-3.6-1.133-3.479-1.385-3.844-1.8-4.228-2.253-4.109-2.439-4.235-2.777-4.374-3.134-4.235-3.313-4.142-3.559-4.056-3.8-3.85-4-3.559-4.142-3.267-4.288-2.266-3.366-1.995-3.38-1.736-3.413-1.478-3.433-1.219-3.559-.875-3.539-.523-3.539-.2-3.545V319.787l.1-2.744.292-2.127.437-1.624.683-1.518.888-1.292,1.107-1.087,2.015-1.425Z" transform="translate(-10.119 -12.143)"/><path class="l" style="fill-rule:evenodd;fill:url(#g);"  d="M452.323,306.467l8.2-3.943,8.125-3.711,16.488-7.389,8.37-3.917,8.767-4.354,2.193-.981,2.134-.669,2.1-.384,2.068-.119,2.074.146,2.048.4,2.015.663,2.015.941,8.522,4.394,8.681,4.182,17.1,7.727,15.646,7.011,1.988.987,1.61.994,1.272.987,1.107,1.153.881,1.339.663,1.551.424,1.65.285,2.074.093,2.585v58.284l-.2,3.545-.524,3.539-.875,3.539-1.219,3.559-1.478,3.433L571.17,399.1l-1.995,3.38-2.266,3.366-3.267,4.288-3.559,4.142-3.85,4-4.056,3.8-4.142,3.559-4.235,3.313-4.374,3.134-4.235,2.777-4.109,2.439-4.228,2.253-3.844,1.8-3.479,1.385-3.6,1.133-2.942.616-2.392.192-2.392-.192-2.942-.616-3.6-1.133-3.479-1.385-3.844-1.8-4.228-2.253-4.109-2.439-4.235-2.777-4.374-3.134-4.235-3.313-4.142-3.559-4.056-3.8-3.85-4-3.559-4.142-3.267-4.288-2.266-3.366-1.995-3.38-1.736-3.413-1.478-3.433-1.219-3.559-.875-3.539-.523-3.539-.2-3.545V319.787l.1-2.744.292-2.127.437-1.624.683-1.518.888-1.292,1.107-1.087,2.015-1.425Z" transform="translate(-10.119 -12.143)"/><path class="m" style="fill:url(#h);"  d="M144.651,21.109H141.03a1.5,1.5,0,0,0,0-.178v-8.1c0-6.94-5.956-12.763-13.311-12.828h-.12c-7.345.065-13.3,5.887-13.3,12.828v8.1a1.5,1.5,0,0,0,0,.178h-4.152a3.319,3.319,0,0,0-3.319,3.323V48.67A3.325,3.325,0,0,0,110.149,52h34.505a3.319,3.319,0,0,0,3.323-3.326V24.431a3.326,3.326,0,0,0-3.326-3.323ZM129.269,37.184v5.294a.439.439,0,0,1-.442.435h-2.849a.442.442,0,0,1-.439-.435V37.184a4.115,4.115,0,1,1,3.731,0ZM117.977,21.109a2.6,2.6,0,0,0,.031-.4V12.6c0-4.934,4.365-9.2,9.663-9.227,5.3.031,9.666,4.293,9.666,9.227v8.1a2.6,2.6,0,0,0,.031.4Zm0,0" transform="translate(372.747 318.421)"/></g><path class="n" style="fill:url(#i);"  d="M24.584,231.328H42.372l3.678,3.678-7.355,7.355-5.516-3.678-5.516,3.678H24.584a12.872,12.872,0,1,1,0-11.033ZM12.95,242.361a5.517,5.517,0,1,0-5.516-5.517A5.517,5.517,0,0,0,12.95,242.361Z" transform="translate(440.943 372.583) rotate(59)"/></g></svg>